<svg version="1.2" baseProfile="tiny" viewBox="0 0 12.453 18.000" xmlns:xlink="http://www.w3.org/1999/xlink" xmlns="http://www.w3.org/2000/svg">
<path style="fill:#ffffff;" d="M2.551,6.877H0.877V5.188C0.877,2.323,3.202,0,6.067,0h0.217c2.866,0,5.188,2.323,5.188,5.188v1.688   H9.799V5.188c0-1.941-1.573-3.516-3.516-3.516H6.067c-1.941,0-3.516,1.574-3.516,3.516V6.877z M12.453,9.185   c0,0.692,0,1.766,0,3.212c0,2.718-2.442,5.604-6.227,5.604C2.444,18,0,15.334,0,12.38c0-1.661,0-2.758,0-3.397   c0.064-0.573,0.505-0.721,0.877-0.721h10.676c0.403,0,0.892,0.166,0.892,0.863C12.445,9.15,12.451,9.163,12.453,9.185z    M7.506,15.644c0,0-0.943-3.74-0.945-3.751c0.464-0.138,0.807-0.567,0.807-1.081c0-0.624-0.504-1.131-1.121-1.131   c-0.62,0-1.123,0.507-1.123,1.131c0,0.516,0.343,0.943,0.809,1.082c-0.011,0.01-0.972,3.75-0.972,3.75H7.506z"/>
</svg>