<svg width="16" height="16" viewBox="0 0 16 16" fill="none" xmlns="http://www.w3.org/2000/svg">
<path d="M13.308 8.55798C13.313 8.50698 13.314 8.49598 13.321 8.42498C13.331 8.31898 13.345 8.14698 13.361 7.95098C13.382 7.68998 13.406 7.38598 13.429 7.14598L13.529 6.14898C13.646 4.98398 13.757 3.88298 13.771 3.46098C13.792 2.80798 13.511 1.70598 12.668 1.52798C12.203 1.42798 11.779 1.49898 11.441 1.73098C11.179 1.90998 10.983 2.16898 10.847 2.51698C10.852 2.30498 10.857 2.12798 10.862 1.99598C10.912 0.742982 10.238 0.246982 9.664 0.0529823C9.522 0.00498227 9.06 -0.0520177 8.754 0.0939823C7.698 0.596982 7.681 1.62498 7.675 1.96298C7.673 2.11198 7.675 2.57998 7.678 3.19798C7.654 3.05098 7.635 2.94398 7.622 2.88798C7.45 2.16698 6.81 1.72198 6.035 1.75698C5.315 1.80098 4.779 2.25498 4.601 2.97198C4.535 3.23598 4.561 3.53998 4.583 3.79198C4.604 3.93298 4.962 6.27798 5.205 7.84298C5.179 7.80098 5.162 7.77398 5.156 7.76498C4.667 7.03798 3.85 6.79598 3.124 7.15998C2.338 7.55298 2.016 8.46498 2.376 9.28098C2.519 9.60498 4.151 12.728 4.639 13.65L4.723 13.81L4.742 13.8C5.657 15.177 7.148 16 8.77 16C11.478 16 13.681 13.588 13.681 10.624C13.681 9.92498 13.56 9.24498 13.322 8.60198L13.308 8.55798ZM12.588 8.84098C12.601 8.92298 12.725 9.10198 12.774 9.24898C12.944 9.76298 12.964 10.071 12.964 10.625C12.964 13.194 11.082 15.284 8.769 15.284C7.348 15.284 6.039 14.543 5.264 13.301C4.696 12.227 3.153 9.26898 3.031 8.99198C2.828 8.53198 3.006 8.01998 3.445 7.79998C3.848 7.59898 4.275 7.73798 4.56 8.16198C4.607 8.23398 5.177 9.18998 5.549 9.81398C5.638 9.96298 5.82 10.027 5.981 9.96698C6.144 9.90598 6.24 9.73898 6.21 9.56898L6.125 9.08098C6.053 8.66698 5.299 3.73398 5.294 3.70098C5.279 3.52898 5.259 3.29298 5.296 3.14398C5.399 2.72898 5.67 2.49698 6.077 2.47198C6.517 2.43998 6.833 2.66498 6.925 3.05298C7.005 3.39198 7.382 6.22998 7.542 7.44198C7.588 7.78998 7.62 8.03198 7.634 8.12398C7.645 8.17098 7.672 8.24098 7.714 8.33698C7.772 8.47198 7.908 8.55598 8.054 8.55298C8.202 8.54798 8.331 8.45398 8.38 8.31498C8.397 8.26698 8.41 8.22498 8.417 8.19998C8.422 8.17698 8.425 8.15298 8.426 8.12998C8.428 8.03598 8.422 7.16998 8.412 5.76498C8.401 4.21798 8.387 2.29298 8.392 1.97398C8.399 1.51798 8.485 1.01598 9.062 0.739982C9.131 0.707982 9.36 0.711982 9.434 0.730982C9.757 0.840982 10.182 1.08798 10.147 1.96698C10.113 2.78798 10.089 5.33398 10.072 7.01898C10.065 7.73298 10.06 8.27498 10.056 8.42398C10.052 8.60598 10.185 8.76198 10.365 8.78698C10.543 8.81098 10.716 8.69898 10.761 8.52198C10.792 8.40098 10.889 7.57898 11.148 5.32598C11.258 4.36698 11.372 3.37498 11.393 3.24698C11.469 2.77998 11.617 2.47698 11.845 2.32198C12.022 2.19998 12.243 2.16998 12.519 2.22798C12.899 2.30898 13.067 3.04698 13.054 3.43698C13.041 3.83498 12.927 4.97498 12.816 6.07698L12.717 7.07598C12.693 7.31898 12.668 7.62798 12.647 7.89398C12.632 8.08498 12.619 8.25298 12.609 8.35598C12.596 8.48798 12.586 8.59298 12.582 8.67798C12.578 8.69898 12.575 8.72198 12.575 8.74398C12.575 8.77798 12.579 8.80998 12.588 8.84098Z" fill="black"/>
</svg>
